<svg aria-hidden="true" style="position: absolute; width: 0; height: 0; overflow: hidden;" version="1.1" xmlns="http://www.w3.org/2000/svg" xmlns:xlink="http://www.w3.org/1999/xlink">
<defs>
<symbol id="icon-booking3" viewBox="0 0 38 32">
<path fill="#fff" style="fill: var(--color1, #fff)" d="M7.2 17.8c-0.475 0-0.939 0.141-1.333 0.404s-0.702 0.639-0.884 1.077c-0.182 0.439-0.229 0.921-0.137 1.387s0.321 0.893 0.657 1.229c0.336 0.336 0.763 0.564 1.229 0.657s0.948 0.045 1.387-0.137c0.439-0.182 0.813-0.489 1.077-0.884s0.404-0.859 0.404-1.333c0-0.636-0.253-1.247-0.703-1.697s-1.061-0.703-1.697-0.703zM7.2 21.4c-0.237 0-0.469-0.070-0.667-0.202s-0.351-0.319-0.442-0.539c-0.091-0.219-0.115-0.46-0.068-0.693s0.161-0.447 0.328-0.614c0.168-0.168 0.382-0.282 0.614-0.328s0.474-0.023 0.693 0.068 0.407 0.245 0.539 0.442c0.132 0.197 0.202 0.429 0.202 0.667 0 0.318-0.126 0.624-0.351 0.848s-0.53 0.352-0.849 0.352z"></path>
<path fill="#fff" style="fill: var(--color1, #fff)" d="M31.2 17.8c-0.475 0-0.939 0.141-1.333 0.404s-0.702 0.639-0.884 1.077c-0.182 0.439-0.229 0.921-0.137 1.387s0.321 0.893 0.657 1.229c0.336 0.336 0.763 0.564 1.229 0.657s0.948 0.045 1.387-0.137c0.439-0.182 0.813-0.489 1.077-0.884s0.404-0.859 0.404-1.333c0-0.636-0.253-1.247-0.703-1.697s-1.061-0.703-1.697-0.703zM31.2 21.4c-0.237 0-0.469-0.070-0.667-0.202s-0.351-0.319-0.442-0.539c-0.091-0.219-0.115-0.46-0.068-0.693s0.161-0.447 0.328-0.614c0.168-0.168 0.382-0.282 0.614-0.328s0.474-0.023 0.693 0.068c0.219 0.091 0.407 0.245 0.539 0.442s0.202 0.429 0.202 0.667c0 0.318-0.126 0.624-0.352 0.848s-0.53 0.352-0.848 0.352z"></path>
<path fill="#fff" style="fill: var(--color1, #fff)" d="M13.8 20.8h10.8v1.2h-10.8v-1.2z"></path>
<path fill="#fff" style="fill: var(--color1, #fff)" d="M13.8 18.4h10.8v1.2h-10.8v-1.2z"></path>
<path fill="#fff" style="fill: var(--color1, #fff)" d="M17.4 9.4h3.6v1.2h-3.6v-1.2z"></path>
<path fill="#fff" style="fill: var(--color1, #fff)" d="M37.2 14.8v-1.2c-0.001-0.477-0.192-0.934-0.529-1.271s-0.794-0.527-1.271-0.529h-2.376l-1.242-4.356-0.372-1.482c-0.098-0.389-0.322-0.734-0.639-0.981s-0.706-0.381-1.107-0.381h-5.064v-2.4c-0.001-0.318-0.128-0.623-0.352-0.847s-0.53-0.352-0.848-0.353h-8.4c-0.318 0.001-0.623 0.128-0.847 0.353s-0.352 0.53-0.353 0.847v2.4h-5.064c-0.401-0-0.791 0.134-1.107 0.381s-0.541 0.592-0.639 0.981l-0.366 1.476-1.248 4.362h-2.376c-0.477 0.001-0.934 0.192-1.271 0.529s-0.527 0.794-0.529 1.271v1.2c0.001 0.304 0.079 0.603 0.227 0.868s0.361 0.489 0.619 0.65c-0.542 0.557-0.846 1.304-0.846 2.082v7.2c0.001 0.252 0.055 0.5 0.158 0.73s0.254 0.435 0.442 0.602v2.268c0.001 0.477 0.192 0.934 0.529 1.271s0.794 0.527 1.271 0.529h4.8c0.477-0.001 0.934-0.192 1.271-0.529s0.527-0.794 0.529-1.271v-1.8h18v1.8c0.001 0.477 0.192 0.934 0.529 1.271s0.794 0.527 1.271 0.529h4.8c0.477-0.001 0.934-0.192 1.271-0.529s0.527-0.794 0.529-1.271v-2.268c0.188-0.167 0.339-0.373 0.442-0.602s0.157-0.478 0.158-0.73v-7.2c0-0.778-0.304-1.525-0.846-2.082 0.258-0.161 0.471-0.384 0.619-0.65s0.226-0.564 0.227-0.868zM15 2.2h8.4v2.4h-8.4v-2.4zM8.154 6.256c0.032-0.13 0.107-0.246 0.212-0.328s0.236-0.128 0.37-0.128h20.928c0.134 0 0.264 0.045 0.37 0.128s0.18 0.198 0.212 0.328l0.186 0.744h-22.464l0.186-0.744zM7.65 8.2h23.1l2.052 7.2h-17.256c-0.141-0.838-0.575-1.6-1.224-2.149s-1.472-0.85-2.322-0.85c-0.85 0-1.673 0.301-2.322 0.85s-1.083 1.31-1.224 2.149h-2.856l2.052-7.2zM14.316 15.4h-4.632c0.131-0.515 0.43-0.971 0.849-1.297s0.936-0.503 1.467-0.503c0.531 0 1.047 0.177 1.467 0.503s0.718 0.783 0.849 1.297zM2.4 13.6c0-0.159 0.063-0.312 0.176-0.424s0.265-0.176 0.424-0.176h2.034l-0.684 2.4h-1.35c-0.159 0-0.312-0.063-0.424-0.176s-0.176-0.265-0.176-0.424v-1.2zM9 29.2c0 0.159-0.063 0.312-0.176 0.424s-0.265 0.176-0.424 0.176h-4.8c-0.159 0-0.312-0.063-0.424-0.176s-0.176-0.265-0.176-0.424v-1.8h6v1.8zM35.4 29.2c0 0.159-0.063 0.312-0.176 0.424s-0.265 0.176-0.424 0.176h-4.8c-0.159 0-0.312-0.063-0.424-0.176s-0.176-0.265-0.176-0.424v-1.8h6v1.8zM36 25.6c0 0.159-0.063 0.312-0.176 0.424s-0.265 0.176-0.424 0.176h-32.4c-0.159 0-0.312-0.063-0.424-0.176s-0.176-0.265-0.176-0.424v-0.6h33.6v0.6zM36 23.8h-33.6v-5.4c0.001-0.477 0.192-0.934 0.529-1.271s0.794-0.527 1.271-0.529h30c0.477 0.001 0.934 0.192 1.271 0.529s0.527 0.794 0.529 1.271v5.4zM36 14.8c0 0.159-0.063 0.312-0.176 0.424s-0.265 0.176-0.424 0.176h-1.35l-0.684-2.4h2.034c0.159 0 0.312 0.063 0.424 0.176s0.176 0.265 0.176 0.424v1.2z"></path>
</symbol>
<symbol id="icon-subsc-decor" viewBox="0 0 32 32">
<path fill="#000" style="fill: var(--color2, #000)" d="M32 16c0 8.837-7.163 16-16 16s-16-7.163-16-16c0-8.837 7.163-16 16-16s16 7.163 16 16z"></path>
<path fill="#fff" style="fill: var(--color1, #fff)" d="M24.050 10.967c0.316 0.547 0.274 1.199-0.111 1.701l-8.445 11.020c-0.348 0.454-0.922 0.686-1.508 0.574-0.574-0.11-1.030-0.529-1.188-1.092l-1.38-4.91-3.562-3.65c-0.409-0.418-0.543-1.022-0.352-1.574 0.189-0.546 0.665-0.943 1.251-1.019l13.767-1.804c0.627-0.082 1.212 0.207 1.528 0.754z"></path>
<path fill="#fff" style="fill: var(--color1, #fff)" d="M11.549 18.723l1.25 4.447c0.158 0.563 0.613 0.982 1.188 1.092 0.586 0.113 1.16-0.119 1.508-0.574l8.445-11.020c0.385-0.502 0.427-1.153 0.111-1.701l-12.632 7.293 0.13 0.463z"></path>
<path fill="#000" style="fill: var(--color2, #000)" d="M16.559 15.292c0.129 0.223 0.052 0.507-0.17 0.636l-4.84 2.794-0.13-0.463-0.336-0.344 4.84-2.794c0.223-0.129 0.508-0.052 0.636 0.17z"></path>
<path fill="#000" style="fill: var(--color2, #000)" d="M11.549 18.722l4.84-2.794c0.223-0.129 0.299-0.413 0.17-0.636l-5.14 2.968 0.13 0.463z"></path>
</symbol>
<symbol id="icon-apple" viewBox="0 0 28 32">
<path fill="#fff" style="fill: var(--color1, #fff)" d="M9.579 32c-4.763-0.027-8.702-9.749-8.702-14.701 0-8.088 6.067-9.858 8.405-9.858 1.054 0 2.179 0.414 3.171 0.78 0.694 0.255 1.412 0.519 1.811 0.519 0.239 0 0.802-0.224 1.299-0.421 1.060-0.422 2.379-0.947 3.916-0.947 0.003 0 0.006 0 0.009 0 1.147 0 4.625 0.252 6.716 3.392l0.49 0.736-0.705 0.532c-1.007 0.76-2.845 2.146-2.845 4.892 0 3.252 2.081 4.503 3.081 5.104 0.441 0.266 0.898 0.539 0.898 1.138 0 0.391-3.12 8.785-7.651 8.785-1.109 0-1.892-0.333-2.584-0.627-0.699-0.297-1.303-0.554-2.3-0.554-0.505 0-1.144 0.239-1.821 0.493-0.925 0.345-1.971 0.737-3.159 0.737h-0.031z"></path>
<path fill="#fff" style="fill: var(--color1, #fff)" d="M19.959 0c0.118 4.255-2.925 7.207-5.964 7.021-0.501-3.395 3.039-7.021 5.964-7.021z"></path>
</symbol>
<symbol id="icon-apple-text" viewBox="0 0 98 32">
<path fill="#fff" style="fill: var(--color1, #fff)" d="M5.387 8.889h1.867l-2.539-7.467h-2.176l-2.539 7.467h1.867l0.373-1.173h2.773l0.373 1.173zM2.752 6.116l0.875-2.741 0.875 2.741h-1.749z"></path>
<path fill="#fff" style="fill: var(--color1, #fff)" d="M11.031 3.556l-1.109 3.381-1.109-3.381h-1.771l1.973 5.333h1.813l1.973-5.333h-1.771z"></path>
<path fill="#fff" style="fill: var(--color1, #fff)" d="M17.052 3.556v0.501c-0.352-0.405-0.875-0.651-1.589-0.651-1.397 0-2.549 1.227-2.549 2.816s1.152 2.816 2.549 2.816c0.715 0 1.237-0.245 1.589-0.651v0.501h1.6v-5.333h-1.6zM15.783 7.524c-0.736 0-1.269-0.501-1.269-1.301s0.533-1.301 1.269-1.301c0.736 0 1.269 0.501 1.269 1.301s-0.533 1.301-1.269 1.301z"></path>
<path fill="#fff" style="fill: var(--color1, #fff)" d="M19.826 8.889h1.6v-7.787h-1.6v7.787z"></path>
<path fill="#fff" style="fill: var(--color1, #fff)" d="M23.397 3.086c0.523 0 0.96-0.437 0.96-0.96s-0.437-0.96-0.96-0.96c-0.523 0-0.96 0.437-0.96 0.96s0.437 0.96 0.96 0.96zM22.597 8.889h1.6v-5.333h-1.6v5.333z"></path>
<path fill="#fff" style="fill: var(--color1, #fff)" d="M28.557 3.406c-0.715 0-1.237 0.245-1.589 0.651v-2.635h-1.6v7.467h1.6v-0.501c0.352 0.405 0.875 0.651 1.589 0.651 1.397 0 2.549-1.227 2.549-2.816s-1.152-2.816-2.549-2.816zM28.237 7.524c-0.736 0-1.269-0.501-1.269-1.301s0.533-1.301 1.269-1.301c0.736 0 1.269 0.501 1.269 1.301s-0.533 1.301-1.269 1.301z"></path>
<path fill="#fff" style="fill: var(--color1, #fff)" d="M32.014 8.889h1.6v-7.787h-1.6v7.787z"></path>
<path fill="#fff" style="fill: var(--color1, #fff)" d="M36.214 6.862h3.787c0.043-0.203 0.064-0.416 0.064-0.64 0-1.611-1.152-2.816-2.709-2.816-1.685 0-2.837 1.227-2.837 2.816s1.131 2.816 2.955 2.816c1.013 0 1.803-0.373 2.325-1.099l-1.28-0.736c-0.213 0.235-0.587 0.405-1.024 0.405-0.587 0-1.077-0.192-1.28-0.747zM36.182 5.668c0.149-0.544 0.555-0.843 1.163-0.843 0.48 0 0.96 0.224 1.131 0.843h-2.293z"></path>
<path fill="#fff" style="fill: var(--color1, #fff)" d="M46.199 9.038c1.568 0 2.827-1.227 2.827-2.816s-1.259-2.816-2.827-2.816c-1.568 0-2.827 1.227-2.827 2.816s1.259 2.816 2.827 2.816zM46.199 7.481c-0.693 0-1.227-0.501-1.227-1.259s0.533-1.259 1.227-1.259c0.693 0 1.227 0.501 1.227 1.259s-0.533 1.259-1.227 1.259z"></path>
<path fill="#fff" style="fill: var(--color1, #fff)" d="M53.056 3.406c-0.704 0-1.237 0.256-1.525 0.651v-0.501h-1.6v5.333h1.6v-2.912c0-0.757 0.405-1.099 0.992-1.099 0.512 0 0.928 0.309 0.928 0.971v3.040h1.6v-3.275c0-1.44-0.917-2.208-1.995-2.208z"></path>
<path fill="#fff" style="fill: var(--color1, #fff)" d="M61.941 5.092v-1.536h-1.099v-1.493l-1.6 0.48v1.013h-0.853v1.536h0.853v1.888c0 1.493 0.608 2.123 2.699 1.909v-1.451c-0.704 0.043-1.099 0-1.099-0.459v-1.888h1.099z"></path>
<path fill="#fff" style="fill: var(--color1, #fff)" d="M65.972 3.406c-0.704 0-1.237 0.256-1.525 0.651v-2.635h-1.6v7.467h1.6v-2.912c0-0.757 0.405-1.099 0.992-1.099 0.512 0 0.928 0.309 0.928 0.971v3.040h1.6v-3.275c0-1.44-0.917-2.208-1.995-2.208z"></path>
<path fill="#fff" style="fill: var(--color1, #fff)" d="M70.495 6.862h3.787c0.043-0.203 0.064-0.416 0.064-0.64 0-1.611-1.152-2.816-2.709-2.816-1.685 0-2.837 1.227-2.837 2.816s1.131 2.816 2.955 2.816c1.013 0 1.803-0.373 2.325-1.099l-1.28-0.736c-0.213 0.235-0.587 0.405-1.024 0.405-0.587 0-1.077-0.192-1.28-0.747zM70.463 5.668c0.149-0.544 0.555-0.843 1.163-0.843 0.48 0 0.96 0.224 1.131 0.843h-2.293z"></path>
<path fill="#fff" style="fill: var(--color1, #fff)" d="M8.978 28.445h3.111l-4.231-12.444h-3.627l-4.231 12.444h3.111l0.622-1.956h4.622l0.622 1.956zM4.587 23.822l1.458-4.569 1.458 4.569h-2.916z"></path>
<path fill="#fff" style="fill: var(--color1, #fff)" d="M18.377 19.307c-1.191 0-2.062 0.409-2.649 1.084v-0.836h-2.667v12.444h2.667v-4.391c0.587 0.676 1.458 1.084 2.649 1.084 2.329 0 4.249-2.044 4.249-4.693s-1.92-4.693-4.249-4.693zM17.843 26.169c-1.227 0-2.116-0.836-2.116-2.169s0.889-2.169 2.116-2.169c1.227 0 2.116 0.836 2.116 2.169s-0.889 2.169-2.116 2.169z"></path>
<path fill="#fff" style="fill: var(--color1, #fff)" d="M29.453 19.307c-1.191 0-2.062 0.409-2.649 1.084v-0.836h-2.667v12.444h2.667v-4.391c0.587 0.676 1.458 1.084 2.649 1.084 2.329 0 4.249-2.044 4.249-4.693s-1.92-4.693-4.249-4.693zM28.92 26.169c-1.227 0-2.116-0.836-2.116-2.169s0.889-2.169 2.116-2.169c1.227 0 2.116 0.836 2.116 2.169s-0.889 2.169-2.116 2.169z"></path>
<path fill="#fff" style="fill: var(--color1, #fff)" d="M35.214 28.445h2.667v-12.978h-2.667v12.978z"></path>
<path fill="#fff" style="fill: var(--color1, #fff)" d="M42.214 25.067h6.311c0.071-0.338 0.107-0.693 0.107-1.067 0-2.684-1.92-4.693-4.516-4.693-2.809 0-4.729 2.044-4.729 4.693s1.884 4.693 4.924 4.693c1.689 0 3.004-0.622 3.876-1.831l-2.133-1.227c-0.356 0.391-0.978 0.676-1.707 0.676-0.978 0-1.796-0.32-2.133-1.244zM42.161 23.076c0.249-0.907 0.924-1.404 1.938-1.404 0.8 0 1.6 0.373 1.884 1.404h-3.822z"></path>
<path fill="#fff" style="fill: var(--color1, #fff)" d="M59.033 28.694c2.702 0 4.622-1.422 4.622-3.822 0-2.631-2.116-3.289-4-3.858-1.938-0.587-2.24-0.978-2.24-1.547 0-0.498 0.444-0.942 1.333-0.942 1.138 0 1.724 0.551 2.151 1.44l2.4-1.404c-0.907-1.831-2.507-2.809-4.551-2.809-2.151 0-4.178 1.387-4.178 3.787 0 2.382 1.813 3.271 3.662 3.787 1.867 0.516 2.578 0.818 2.578 1.582 0 0.48-0.338 1.013-1.689 1.013-1.404 0-2.169-0.693-2.613-1.724l-2.453 1.422c0.693 1.831 2.364 3.076 4.978 3.076z"></path>
<path fill="#fff" style="fill: var(--color1, #fff)" d="M69.937 22.116v-2.56h-1.831v-2.489l-2.667 0.8v1.689h-1.422v2.56h1.422v3.147c0 2.489 1.013 3.538 4.498 3.182v-2.418c-1.173 0.071-1.831 0-1.831-0.764v-3.147h1.831z"></path>
<path fill="#fff" style="fill: var(--color1, #fff)" d="M75.54 28.694c2.613 0 4.711-2.044 4.711-4.693s-2.098-4.693-4.711-4.693c-2.613 0-4.711 2.044-4.711 4.693s2.098 4.693 4.711 4.693zM75.54 26.098c-1.156 0-2.044-0.836-2.044-2.098s0.889-2.098 2.044-2.098c1.156 0 2.044 0.836 2.044 2.098s-0.889 2.098-2.044 2.098z"></path>
<path fill="#fff" style="fill: var(--color1, #fff)" d="M84.426 21.138v-1.582h-2.667v8.889h2.667v-4.018c0-1.76 1.564-2.204 2.667-2.027v-3.022c-1.12 0-2.311 0.569-2.667 1.76z"></path>
<path fill="#fff" style="fill: var(--color1, #fff)" d="M90.461 25.067h6.311c0.071-0.338 0.107-0.693 0.107-1.067 0-2.684-1.92-4.693-4.516-4.693-2.809 0-4.729 2.044-4.729 4.693s1.884 4.693 4.924 4.693c1.689 0 3.004-0.622 3.876-1.831l-2.133-1.227c-0.356 0.391-0.978 0.676-1.707 0.676-0.978 0-1.796-0.32-2.133-1.244zM90.407 23.076c0.249-0.907 0.924-1.404 1.938-1.404 0.8 0 1.6 0.373 1.884 1.404h-3.822z"></path>
</symbol>
<symbol id="icon-google" viewBox="0 0 32 32">
<path fill="#2196f3" style="fill: var(--color3, #2196f3)" d="M18.412 16.003l-16.070 15.474c-0.753-0.514-1.199-1.37-1.191-2.281v-26.386c-0.008-0.911 0.439-1.767 1.191-2.281l16.070 15.474z"></path>
<path fill="#4caf50" style="fill: var(--color4, #4caf50)" d="M24.035 10.598l-5.623 5.405-16.070-15.474c0.061-0.047 0.124-0.091 0.189-0.131 0.849-0.515 1.91-0.531 2.775-0.044l18.728 10.243z"></path>
<path fill="#f0bb1f" style="fill: var(--color5, #f0bb1f)" d="M30.849 16.003c0.011 1.029-0.549 1.979-1.453 2.47l-5.361 2.935-5.623-5.405 5.623-5.405 5.361 2.935c0.904 0.491 1.464 1.441 1.453 2.47z"></path>
<path fill="#f15a2b" style="fill: var(--color6, #f15a2b)" d="M24.035 21.408l-18.729 10.243c-0.867 0.48-1.924 0.464-2.775-0.044-0.065-0.040-0.128-0.084-0.189-0.131l16.070-15.474 5.623 5.405z"></path>
</symbol>
<symbol id="icon-google-text" viewBox="0 0 108 32">
<path fill="#fff" style="fill: var(--color1, #fff)" d="M12.048 5.76h-5.616v2.24h2.992c-0.4 1.072-1.376 1.728-2.864 1.728-2.176 0-3.52-1.392-3.52-3.296 0-1.968 1.408-3.36 3.296-3.36 1.264 0 2.272 0.576 2.736 1.312l2.176-1.248c-0.944-1.504-2.752-2.56-4.896-2.56-3.296 0-5.872 2.592-5.872 5.84 0 3.216 2.528 5.808 6.048 5.808 3.136 0 5.52-2.080 5.52-5.504v-0.96z"></path>
<path fill="#fff" style="fill: var(--color1, #fff)" d="M15.251 9.536v-1.984h4v-2.432h-4v-1.856h4.4v-2.464h-6.96v11.2h7.040v-2.464h-4.48z"></path>
<path fill="#fff" style="fill: var(--color1, #fff)" d="M27.896 0.8h-8.32v2.464h2.88v8.736h2.56v-8.736h2.88v-2.464z"></path>
<path fill="#fff" style="fill: var(--color1, #fff)" d="M31.416 0.8v11.2h2.56v-11.2h-2.56z"></path>
<path fill="#fff" style="fill: var(--color1, #fff)" d="M42.621 0.8h-8.32v2.464h2.88v8.736h2.56v-8.736h2.88v-2.464z"></path>
<path fill="#fff" style="fill: var(--color1, #fff)" d="M51.485 12.224c3.216 0 5.824-2.528 5.824-5.824s-2.608-5.824-5.824-5.824c-3.216 0-5.824 2.528-5.824 5.824s2.608 5.824 5.824 5.824zM51.485 9.728c-1.824 0-3.264-1.328-3.264-3.328s1.44-3.328 3.264-3.328c1.824 0 3.264 1.328 3.264 3.328s-1.44 3.328-3.264 3.328z"></path>
<path fill="#fff" style="fill: var(--color1, #fff)" d="M64.191 0.8v6.080l-4.32-6.080h-1.92v11.2h2.56v-6.080l4.32 6.080h1.92v-11.2h-2.56z"></path>
<path fill="#fff" style="fill: var(--color1, #fff)" d="M12.048 24.784v0.432c0 1.397-0.496 2.576-1.488 3.536-0.992 0.949-2.299 1.424-3.92 1.424-1.707 0-3.115-0.555-4.224-1.664-1.109-1.12-1.664-2.491-1.664-4.112s0.549-2.987 1.648-4.096c1.099-1.12 2.491-1.68 4.176-1.68 1.024 0 1.963 0.245 2.816 0.736 0.864 0.491 1.531 1.147 2 1.968l-0.752 0.448c-0.373-0.704-0.928-1.269-1.664-1.696-0.725-0.427-1.525-0.64-2.4-0.64-1.451 0-2.645 0.48-3.584 1.44-0.928 0.949-1.392 2.123-1.392 3.52s0.469 2.576 1.408 3.536c0.939 0.949 2.149 1.424 3.632 1.424 1.312 0 2.373-0.357 3.184-1.072s1.264-1.616 1.36-2.704h-4.752v-0.8h5.616z"></path>
<path fill="#fff" style="fill: var(--color1, #fff)" d="M23.405 28.496c-1.12 1.12-2.485 1.68-4.096 1.68s-2.976-0.56-4.096-1.68c-1.12-1.131-1.68-2.496-1.68-4.096s0.56-2.96 1.68-4.080c1.12-1.131 2.485-1.696 4.096-1.696s2.976 0.565 4.096 1.696c1.12 1.12 1.68 2.48 1.68 4.080s-0.56 2.965-1.68 4.096zM15.805 27.92c0.96 0.96 2.128 1.44 3.504 1.44s2.539-0.48 3.488-1.44c0.96-0.971 1.44-2.144 1.44-3.52s-0.48-2.544-1.44-3.504c-0.949-0.971-2.112-1.456-3.488-1.456s-2.544 0.485-3.504 1.456c-0.949 0.96-1.424 2.128-1.424 3.504s0.475 2.549 1.424 3.52z"></path>
<path fill="#fff" style="fill: var(--color1, #fff)" d="M36.468 28.496c-1.12 1.12-2.485 1.68-4.096 1.68s-2.976-0.56-4.096-1.68c-1.12-1.131-1.68-2.496-1.68-4.096s0.56-2.96 1.68-4.080c1.12-1.131 2.485-1.696 4.096-1.696s2.976 0.565 4.096 1.696c1.12 1.12 1.68 2.48 1.68 4.080s-0.56 2.965-1.68 4.096zM28.868 27.92c0.96 0.96 2.128 1.44 3.504 1.44s2.539-0.48 3.488-1.44c0.96-0.971 1.44-2.144 1.44-3.52s-0.48-2.544-1.44-3.504c-0.949-0.971-2.112-1.456-3.488-1.456s-2.544 0.485-3.504 1.456c-0.949 0.96-1.424 2.128-1.424 3.504s0.475 2.549 1.424 3.52z"></path>
<path fill="#fff" style="fill: var(--color1, #fff)" d="M50.954 24.784v0.432c0 1.397-0.496 2.576-1.488 3.536-0.992 0.949-2.299 1.424-3.92 1.424-1.707 0-3.115-0.555-4.224-1.664-1.109-1.12-1.664-2.491-1.664-4.112s0.549-2.987 1.648-4.096c1.099-1.12 2.491-1.68 4.176-1.68 1.024 0 1.963 0.245 2.816 0.736 0.864 0.491 1.531 1.147 2 1.968l-0.752 0.448c-0.373-0.704-0.928-1.269-1.664-1.696-0.725-0.427-1.525-0.64-2.4-0.64-1.451 0-2.645 0.48-3.584 1.44-0.928 0.949-1.392 2.123-1.392 3.52s0.469 2.576 1.408 3.536c0.939 0.949 2.149 1.424 3.632 1.424 1.312 0 2.373-0.357 3.184-1.072s1.264-1.616 1.36-2.704h-4.752v-0.8h5.616z"></path>
<path fill="#fff" style="fill: var(--color1, #fff)" d="M53.927 29.2h5.28v0.8h-6.128v-11.2h0.848v10.4z"></path>
<path fill="#fff" style="fill: var(--color1, #fff)" d="M61.818 29.2h5.6v0.8h-6.448v-11.2h6.368v0.8h-5.52v4.352h5.12v0.8h-5.12v4.448z"></path>
<path fill="#fff" style="fill: var(--color1, #fff)" d="M77.575 18.8c1.003 0 1.835 0.331 2.496 0.992s0.992 1.488 0.992 2.48-0.331 1.819-0.992 2.48c-0.661 0.651-1.493 0.976-2.496 0.976h-2.96v4.272h-0.848v-11.2h3.808zM77.575 24.928c0.768 0 1.397-0.251 1.888-0.752 0.501-0.501 0.752-1.136 0.752-1.904 0-0.779-0.251-1.419-0.752-1.92-0.491-0.501-1.12-0.752-1.888-0.752h-2.96v5.328h2.96z"></path>
<path fill="#fff" style="fill: var(--color1, #fff)" d="M84.006 29.2h5.28v0.8h-6.128v-11.2h0.848v10.4z"></path>
<path fill="#fff" style="fill: var(--color1, #fff)" d="M98.897 30l-1.088-2.848h-5.616l-1.088 2.848h-0.896l4.352-11.2h0.896l4.336 11.2h-0.896zM92.513 26.352h4.992l-2.496-6.512-2.496 6.512z"></path>
<path fill="#fff" style="fill: var(--color1, #fff)" d="M107.762 18.8l-4.080 6.592v4.608h-0.848v-4.608l-4.080-6.592h0.96l3.552 5.776 3.536-5.776h0.96z"></path>
</symbol>
<symbol id="icon-twitter" viewBox="0 0 39 32">
<path d="M39.385 3.788c-1.465 0.642-3.025 1.068-4.652 1.275 1.674-0.999 2.951-2.57 3.552-4.463-1.561 0.93-3.284 1.588-5.12 1.954-1.482-1.578-3.594-2.555-5.898-2.555-4.47 0-8.069 3.628-8.069 8.076 0 0.64 0.054 1.255 0.187 1.841-6.713-0.327-12.652-3.545-16.642-8.446-0.697 1.209-1.105 2.592-1.105 4.081 0 2.796 1.44 5.275 3.586 6.71-1.297-0.025-2.57-0.401-3.648-0.994 0 0.025 0 0.057 0 0.089 0 3.924 2.799 7.183 6.469 7.934-0.657 0.18-1.374 0.266-2.117 0.266-0.517 0-1.039-0.030-1.529-0.138 1.046 3.198 4.015 5.548 7.545 5.625-2.747 2.149-6.235 3.444-10.011 3.444-0.662 0-1.297-0.030-1.932-0.111 3.577 2.306 7.815 3.623 12.386 3.623 14.858 0 22.981-12.308 22.981-22.976 0-0.357-0.012-0.702-0.030-1.044 1.602-1.137 2.949-2.558 4.047-4.192z"></path>
</symbol>
<symbol id="icon-facebook" viewBox="0 0 17 32">
<path d="M15.036 5.525c-0.788-0.249-1.694-0.415-2.521-0.415-1.024 0-3.23 0.706-3.23 2.077v3.282h5.239v5.525h-5.239v15.245h-5.279v-15.245h-2.6v-5.525h2.6v-2.783c0-4.196 1.812-7.685 6.185-7.685 1.497 0 4.176 0.083 5.633 0.623l-0.788 4.902z"></path>
</symbol>
<symbol id="icon-instagram" viewBox="0 0 32 32">
<path fill="#fff" style="fill: var(--color1, #fff)" d="M27.312 0h-22.625c-2.584 0-4.688 2.103-4.688 4.688v22.625c0 2.585 2.103 4.688 4.688 4.688h22.625c2.585 0 4.688-2.103 4.688-4.688v-22.625c0-2.584-2.103-4.688-4.688-4.688zM30.125 27.312c0 1.551-1.262 2.813-2.813 2.813h-22.625c-1.551 0-2.813-1.262-2.813-2.813v-22.625c0-1.551 1.262-2.813 2.813-2.813h22.625c1.551 0 2.813 1.262 2.813 2.813v22.625z"></path>
<path fill="#fff" style="fill: var(--color1, #fff)" d="M26.312 3.813c-1.034 0-1.875 0.841-1.875 1.875s0.841 1.875 1.875 1.875c1.034 0 1.875-0.841 1.875-1.875s-0.841-1.875-1.875-1.875z"></path>
<path fill="#fff" style="fill: var(--color1, #fff)" d="M16 7.563c-4.652 0-8.438 3.785-8.438 8.438s3.785 8.438 8.438 8.438c4.653 0 8.438-3.785 8.438-8.438s-3.785-8.438-8.438-8.438zM16 22.562c-3.619 0-6.563-2.944-6.563-6.562s2.944-6.563 6.563-6.563c3.619 0 6.562 2.944 6.562 6.563s-2.944 6.562-6.562 6.562z"></path>
</symbol>
<symbol id="icon-mail-subsc" viewBox="0 0 37 32">
<path fill="none" stroke="#39425d" style="stroke: var(--color7, #39425d)" stroke-linejoin="miter" stroke-linecap="round" stroke-miterlimit="4" stroke-width="1.7778" d="M7.111 10.667l9.6 7.2c0.632 0.474 1.501 0.474 2.133 0l9.6-7.2"></path>
<path fill="none" stroke="#39425d" style="stroke: var(--color7, #39425d)" stroke-linejoin="miter" stroke-linecap="butt" stroke-miterlimit="4" stroke-width="1.7778" d="M8.889 0.889h19.556c4.418 0 8 3.582 8 8v14.222c0 4.418-3.582 8-8 8h-19.556c-4.418 0-8-3.582-8-8v-14.222c0-4.418 3.582-8 8-8z"></path>
</symbol>
<symbol id="icon-ongoing-loader" viewBox="0 0 998 32">
<path fill="#f5f5f5" style="fill: var(--color8, #f5f5f5)" d="M16 0h966.4c8.837 0 16 7.163 16 16s-7.163 16-16 16h-966.4c-8.837 0-16-7.163-16-16s7.163-16 16-16z"></path>
<path fill="#8a79df" style="fill: var(--color9, #8a79df)" d="M16 0h435.2c8.837 0 16 7.163 16 16s-7.163 16-16 16h-435.2c-8.837 0-16-7.163-16-16s7.163-16 16-16z"></path>
</symbol>
<symbol id="icon-heart-ex" viewBox="0 0 32 32">
<path fill="#4152ca" style="fill: var(--color10, #4152ca)" d="M29.383 3.927c-1.655-1.779-3.974-2.791-6.404-2.795-2.432 0.003-4.754 1.015-6.411 2.794l-0.565 0.597-0.565-0.597c-3.289-3.54-8.826-3.744-12.366-0.454-0.157 0.146-0.308 0.297-0.454 0.454-3.489 3.764-3.489 9.58 0 13.344l12.555 13.24c0.434 0.459 1.158 0.478 1.617 0.044 0.015-0.014 0.030-0.029 0.044-0.044l12.551-13.24c3.489-3.763 3.489-9.58-0-13.343zM27.728 15.695h-0.001l-11.725 12.366-11.726-12.366c-2.666-2.876-2.666-7.32 0-10.196 2.421-2.624 6.51-2.788 9.134-0.367 0.127 0.118 0.25 0.24 0.367 0.367l1.394 1.471c0.459 0.456 1.201 0.456 1.661 0l1.394-1.47c2.421-2.624 6.51-2.788 9.134-0.367 0.127 0.118 0.25 0.24 0.368 0.367 2.689 2.88 2.708 7.332 0 10.194z"></path>
</symbol>
<symbol id="icon-house-ex" viewBox="0 0 32 32">
<path fill="#84829a" style="fill: var(--color11, #84829a)" d="M0.533 30.933h3.2v-17.6c0-0.295 0.239-0.533 0.533-0.533h7.467v-12.267c0-0.295 0.239-0.533 0.533-0.533h13.867c0.294 0 0.533 0.239 0.533 0.533v30.4h4.8c0.295 0 0.533 0.239 0.533 0.533s-0.239 0.533-0.533 0.533h-30.933c-0.295 0-0.533-0.239-0.533-0.533s0.239-0.533 0.533-0.533zM20.8 30.933h2.133v-4.8c0-0.295-0.239-0.533-0.533-0.533h-1.067c-0.295 0-0.533 0.239-0.533 0.533v4.8zM18.667 13.333v17.6h1.067v-4.8c0-0.884 0.716-1.6 1.6-1.6h1.067c0.884 0 1.6 0.716 1.6 1.6v4.8h1.6v-29.867h-12.8v11.733h5.333c0.295 0 0.533 0.239 0.533 0.533zM4.8 30.933h12.8v-17.067h-12.8v17.067z"></path>
<path fill="#84829a" style="fill: var(--color11, #84829a)" d="M14.933 7.467h3.2c0.295 0 0.533 0.239 0.533 0.533v3.2c0 0.295-0.239 0.533-0.533 0.533h-3.2c-0.295 0-0.533-0.239-0.533-0.533v-3.2c0-0.295 0.239-0.533 0.533-0.533zM15.466 10.667h2.133v-2.133h-2.133v2.133z"></path>
<path fill="#84829a" style="fill: var(--color11, #84829a)" d="M14.933 2.133h3.2c0.295 0 0.533 0.239 0.533 0.533v3.2c0 0.295-0.239 0.533-0.533 0.533h-3.2c-0.295 0-0.533-0.239-0.533-0.533v-3.2c0-0.295 0.239-0.533 0.533-0.533zM15.466 5.333h2.133v-2.133h-2.133v2.133z"></path>
<path fill="#84829a" style="fill: var(--color11, #84829a)" d="M20.267 7.467h3.2c0.295 0 0.533 0.239 0.533 0.533v3.2c0 0.295-0.239 0.533-0.533 0.533h-3.2c-0.294 0-0.533-0.239-0.533-0.533v-3.2c0-0.295 0.239-0.533 0.533-0.533zM20.8 10.667h2.133v-2.133h-2.133v2.133z"></path>
<path fill="#84829a" style="fill: var(--color11, #84829a)" d="M20.267 2.133h3.2c0.295 0 0.533 0.239 0.533 0.533v3.2c0 0.295-0.239 0.533-0.533 0.533h-3.2c-0.294 0-0.533-0.239-0.533-0.533v-3.2c0-0.295 0.239-0.533 0.533-0.533zM20.8 5.333h2.133v-2.133h-2.133v2.133z"></path>
<path fill="#84829a" style="fill: var(--color11, #84829a)" d="M20.267 12.8h3.2c0.295 0 0.533 0.239 0.533 0.533v3.2c0 0.295-0.239 0.533-0.533 0.533h-3.2c-0.294 0-0.533-0.239-0.533-0.533v-3.2c0-0.295 0.239-0.533 0.533-0.533zM20.8 16h2.133v-2.133h-2.133v2.133z"></path>
<path fill="#84829a" style="fill: var(--color11, #84829a)" d="M20.267 18.133h3.2c0.295 0 0.533 0.239 0.533 0.533v3.2c0 0.295-0.239 0.533-0.533 0.533h-3.2c-0.294 0-0.533-0.239-0.533-0.533v-3.2c0-0.295 0.239-0.533 0.533-0.533zM20.8 21.333h2.133v-2.133h-2.133v2.133z"></path>
<path fill="#84829a" style="fill: var(--color11, #84829a)" d="M10.133 24.533h-3.2c-0.295 0-0.533-0.239-0.533-0.533v-3.2c0-0.295 0.239-0.533 0.533-0.533h3.2c0.295 0 0.533 0.239 0.533 0.533v3.2c0 0.294-0.239 0.533-0.533 0.533zM9.6 21.333h-2.133v2.133h2.133v-2.133z"></path>
<path fill="#84829a" style="fill: var(--color11, #84829a)" d="M10.133 19.2h-3.2c-0.295 0-0.533-0.239-0.533-0.533v-3.2c0-0.295 0.239-0.533 0.533-0.533h3.2c0.295 0 0.533 0.239 0.533 0.533v3.2c0 0.295-0.239 0.533-0.533 0.533zM9.6 16h-2.133v2.133h2.133v-2.133z"></path>
<path fill="#84829a" style="fill: var(--color11, #84829a)" d="M10.133 29.867h-3.2c-0.295 0-0.533-0.239-0.533-0.533v-3.2c0-0.295 0.239-0.533 0.533-0.533h3.2c0.295 0 0.533 0.239 0.533 0.533v3.2c0 0.295-0.239 0.533-0.533 0.533zM9.6 26.667h-2.133v2.133h2.133v-2.133z"></path>
<path fill="#84829a" style="fill: var(--color11, #84829a)" d="M15.467 24.533h-3.2c-0.295 0-0.533-0.239-0.533-0.533v-3.2c0-0.295 0.239-0.533 0.533-0.533h3.2c0.295 0 0.533 0.239 0.533 0.533v3.2c0 0.294-0.239 0.533-0.533 0.533zM14.933 21.333h-2.133v2.133h2.133v-2.133z"></path>
<path fill="#84829a" style="fill: var(--color11, #84829a)" d="M15.467 19.2h-3.2c-0.295 0-0.533-0.239-0.533-0.533v-3.2c0-0.295 0.239-0.533 0.533-0.533h3.2c0.295 0 0.533 0.239 0.533 0.533v3.2c0 0.295-0.239 0.533-0.533 0.533zM14.933 16h-2.133v2.133h2.133v-2.133z"></path>
<path fill="#84829a" style="fill: var(--color11, #84829a)" d="M15.467 29.867h-3.2c-0.295 0-0.533-0.239-0.533-0.533v-3.2c0-0.295 0.239-0.533 0.533-0.533h3.2c0.295 0 0.533 0.239 0.533 0.533v3.2c0 0.295-0.239 0.533-0.533 0.533zM14.933 26.667h-2.133v2.133h2.133v-2.133z"></path>
</symbol>
<symbol id="icon-send-ex" viewBox="0 0 32 32">
<path fill="#84829a" style="fill: var(--color11, #84829a)" d="M28.213 2.84l-14.44 14.493c-0.166-0.096-0.34-0.176-0.52-0.24l-9.533-3.227c-0.288-0.072-0.544-0.239-0.727-0.473s-0.282-0.523-0.282-0.82c0-0.297 0.099-0.586 0.282-0.82s0.439-0.401 0.727-0.473l23.653-8.413c0.154-0.053 0.317-0.080 0.48-0.080 0.122-0.002 0.244 0.016 0.36 0.053z"></path>
<path fill="#84829a" style="fill: var(--color11, #84829a)" d="M29.134 4.627l-8.413 23.68c-0.093 0.276-0.273 0.514-0.514 0.678s-0.529 0.244-0.819 0.229c-0.294 0.014-0.584-0.071-0.826-0.24s-0.42-0.413-0.508-0.694l-3.173-9.533c-0.064-0.18-0.144-0.354-0.24-0.52l14.52-14.44c0.082 0.276 0.073 0.57-0.026 0.84z"></path>
</symbol>
<symbol id="icon-map-ex" viewBox="0 0 32 32">
<path fill="#84829a" style="fill: var(--color11, #84829a)" d="M30.859 0c-0.178-0-0.353 0.041-0.512 0.121l-8.66 4.331-9.793-4.353c-0.016-0.007-0.034-0.008-0.051-0.015-0.044-0.016-0.089-0.030-0.135-0.041-0.045-0.012-0.092-0.022-0.138-0.029-0.093-0.008-0.186-0.008-0.279 0-0.047 0.007-0.093 0.016-0.138 0.029-0.046 0.011-0.091 0.025-0.135 0.041-0.017 0.007-0.035 0.008-0.051 0.015l-10.286 4.571c-0.413 0.183-0.679 0.593-0.679 1.045v25.142c0 0.387 0.196 0.747 0.52 0.958s0.733 0.244 1.087 0.087l9.822-4.366 9.822 4.366c0.017 0.007 0.035 0 0.053 0.010 0.277 0.124 0.594 0.117 0.865-0.019 0.018-0.008 0.039 0 0.057-0.013l9.143-4.571c0.387-0.194 0.632-0.59 0.632-1.023v-25.142c0-0.631-0.511-1.143-1.142-1.143zM10.288 25.543l-8 3.555v-22.641l8-3.555v22.641zM20.573 29.098l-8-3.555v-22.641l8 3.555v22.641zM29.716 25.58l-6.857 3.428v-22.587l6.857-3.429v22.587z"></path>
</symbol>
<symbol id="icon-leaf-ex" viewBox="0 0 32 32">
<path fill="#84829a" style="fill: var(--color11, #84829a)" d="M31.21 0.345c-0.843-0.247-21.467-2.3-28.71 7.485-3.208 4.335-3.256 10.278-0.161 17.661-0.785 1.63-1.473 3.346-2.033 5.158-0.17 0.55 0.138 1.134 0.688 1.304 0.102 0.032 0.206 0.047 0.309 0.047 0.445 0 0.857-0.287 0.995-0.734 5.521-17.848 23.461-26.482 28.962-28.664 0.536-0.212 1.251-1.876-0.050-2.257z"></path>
<path fill="#84829a" style="fill: var(--color11, #84829a)" d="M5.65 27.725c2.986 1.253 5.972 1.895 8.748 1.895 2.496 0 4.823-0.513 6.828-1.554 4.036-2.094 6.503-6.099 7.133-11.583 0.642-5.59 1.44-9.091 2.107-11.232-5.932 2.736-18.652 9.829-24.816 22.475z"></path>
</symbol>
<symbol id="icon-booking2" viewBox="0 0 43 32">
<path fill="#fff" style="fill: var(--color1, #fff)" d="M37.011 31.873c-0.8 0.016-1.587-0.213-2.253-0.656-0.496-0.324-1.076-0.497-1.668-0.497s-1.172 0.172-1.668 0.497c-0.673 0.429-1.454 0.656-2.252 0.656s-1.579-0.228-2.252-0.656c-0.496-0.324-1.076-0.497-1.668-0.497s-1.172 0.173-1.668 0.497c-0.673 0.429-1.454 0.656-2.252 0.656s-1.579-0.228-2.252-0.656c-0.495-0.324-1.075-0.497-1.667-0.497s-1.172 0.173-1.667 0.497c-0.61 0.405-1.322 0.631-2.055 0.65l-0.040-1.153c0.541-0.013 1.066-0.184 1.511-0.492 0.673-0.428 1.454-0.656 2.252-0.656s1.579 0.228 2.252 0.656c0.496 0.324 1.076 0.497 1.668 0.497s1.172-0.173 1.668-0.497c0.673-0.429 1.455-0.657 2.253-0.657s1.58 0.228 2.253 0.657c0.496 0.324 1.076 0.497 1.668 0.497s1.172-0.173 1.668-0.497c0.673-0.428 1.455-0.656 2.252-0.656s1.579 0.228 2.252 0.656c0.497 0.325 1.078 0.498 1.672 0.498s1.175-0.173 1.672-0.498c0.666-0.442 1.45-0.671 2.249-0.655v1.153c-0.595-0.016-1.179 0.158-1.669 0.497-0.668 0.444-1.456 0.673-2.258 0.657z"></path>
<path fill="#fff" style="fill: var(--color1, #fff)" d="M5.651 31.873c-0.8 0.017-1.586-0.212-2.252-0.656-0.489-0.339-1.074-0.513-1.669-0.497v-1.153c0.8-0.017 1.587 0.212 2.253 0.656 0.489 0.339 1.073 0.513 1.668 0.497 0.595 0.016 1.18-0.158 1.669-0.498 0.665-0.444 1.45-0.672 2.249-0.655 0.78-0.018 1.546 0.201 2.2 0.627l-0.582 0.995c-0.477-0.321-1.043-0.485-1.618-0.469-0.593-0.016-1.175 0.158-1.662 0.496-0.667 0.445-1.454 0.674-2.256 0.657z"></path>
<path fill="#fff" style="fill: var(--color1, #fff)" d="M37.012 27.836c-0.801 0.016-1.587-0.213-2.254-0.656-0.496-0.324-1.076-0.497-1.669-0.497s-1.173 0.173-1.669 0.497c-0.673 0.428-1.454 0.656-2.252 0.656s-1.579-0.228-2.252-0.656c-0.496-0.324-1.075-0.497-1.667-0.497s-1.172 0.173-1.668 0.497c-0.673 0.429-1.454 0.656-2.252 0.656s-1.579-0.228-2.252-0.656c-0.496-0.324-1.075-0.497-1.667-0.497s-1.172 0.173-1.667 0.497c-0.666 0.444-1.452 0.673-2.252 0.656-0.8 0.017-1.586-0.212-2.252-0.656-0.489-0.339-1.073-0.513-1.667-0.497-0.594-0.016-1.178 0.158-1.667 0.497-0.665 0.443-1.45 0.672-2.249 0.656-0.8 0.017-1.587-0.212-2.253-0.656-0.49-0.34-1.075-0.514-1.671-0.497v-1.153c0.8-0.017 1.586 0.212 2.252 0.656 0.489 0.339 1.074 0.513 1.669 0.497 0.594 0.016 1.178-0.158 1.667-0.497 0.665-0.443 1.45-0.672 2.249-0.656 0.801-0.017 1.587 0.212 2.254 0.656 0.489 0.339 1.073 0.513 1.668 0.497 0.595 0.016 1.179-0.158 1.668-0.497 0.673-0.429 1.454-0.656 2.252-0.656s1.579 0.228 2.252 0.656c0.496 0.324 1.075 0.497 1.668 0.497s1.172-0.173 1.668-0.497c0.673-0.429 1.454-0.656 2.252-0.656s1.579 0.228 2.252 0.656c0.496 0.324 1.075 0.497 1.668 0.497s1.172-0.173 1.668-0.497c0.674-0.428 1.455-0.656 2.254-0.656s1.58 0.228 2.254 0.656c0.497 0.324 1.077 0.497 1.67 0.497s1.173-0.173 1.67-0.497c0.667-0.443 1.453-0.672 2.254-0.656v1.153c-0.596-0.017-1.182 0.157-1.672 0.497-0.666 0.443-1.452 0.672-2.253 0.656z"></path>
<path fill="#fff" style="fill: var(--color1, #fff)" d="M37.011 23.801c-0.8 0.016-1.586-0.213-2.253-0.656-0.489-0.339-1.074-0.513-1.669-0.497-0.437-0.015-0.87 0.078-1.262 0.271l-0.509-1.038c0.55-0.27 1.158-0.403 1.771-0.388 0.801-0.016 1.588 0.213 2.255 0.658 0.497 0.325 1.078 0.498 1.672 0.498s1.175-0.173 1.672-0.498c0.665-0.442 1.45-0.671 2.249-0.656v1.153c-0.595-0.016-1.179 0.157-1.669 0.496-0.668 0.444-1.456 0.673-2.258 0.657z"></path>
<path fill="#fff" style="fill: var(--color1, #fff)" d="M29.163 23.801c-0.799 0.017-1.584-0.212-2.249-0.656-0.496-0.324-1.076-0.497-1.668-0.497s-1.172 0.173-1.668 0.497c-0.673 0.429-1.454 0.656-2.252 0.656s-1.579-0.228-2.252-0.656c-0.496-0.324-1.076-0.497-1.668-0.497s-1.172 0.173-1.668 0.497c-0.666 0.443-1.451 0.672-2.251 0.656-0.8 0.017-1.586-0.212-2.252-0.656-0.489-0.339-1.074-0.513-1.669-0.497-0.593-0.016-1.175 0.158-1.662 0.496-0.666 0.445-1.453 0.674-2.253 0.657-0.8 0.017-1.586-0.212-2.252-0.656-0.489-0.339-1.074-0.513-1.669-0.497v-1.153c0.8-0.017 1.587 0.212 2.253 0.656 0.489 0.339 1.073 0.513 1.668 0.497 0.595 0.016 1.18-0.158 1.669-0.498 0.665-0.444 1.45-0.672 2.249-0.655 0.8-0.017 1.586 0.212 2.252 0.656 0.489 0.339 1.073 0.513 1.668 0.497 0.595 0.016 1.179-0.158 1.669-0.497 0.673-0.429 1.454-0.656 2.252-0.656s1.579 0.228 2.252 0.656c0.496 0.324 1.076 0.497 1.668 0.497s1.172-0.173 1.668-0.497c0.673-0.429 1.455-0.657 2.253-0.657s1.58 0.228 2.253 0.657c0.508 0.341 1.11 0.515 1.722 0.496 0.044 0.001 0.089-0.002 0.133-0.007l0.153 1.143c-0.116 0.014-0.232 0.020-0.349 0.018z"></path>
<path fill="#fff" style="fill: var(--color1, #fff)" d="M37.012 19.764c-0.801 0.016-1.587-0.213-2.254-0.656-0.496-0.324-1.076-0.497-1.669-0.497s-1.173 0.173-1.669 0.497c-0.673 0.428-1.454 0.656-2.252 0.656s-1.579-0.228-2.252-0.656c-0.496-0.324-1.075-0.497-1.667-0.497s-1.172 0.173-1.668 0.497c-0.673 0.428-1.454 0.656-2.252 0.656s-1.579-0.228-2.252-0.656c-0.496-0.324-1.075-0.497-1.667-0.497s-1.172 0.173-1.667 0.497c-0.666 0.444-1.452 0.673-2.252 0.656-0.8 0.017-1.586-0.212-2.252-0.656-0.489-0.339-1.073-0.513-1.667-0.497-0.594-0.016-1.178 0.158-1.667 0.497-0.665 0.443-1.45 0.672-2.249 0.656-0.8 0.017-1.587-0.212-2.253-0.656-0.49-0.34-1.075-0.514-1.671-0.497v-1.153c0.8-0.017 1.586 0.212 2.252 0.656 0.489 0.339 1.074 0.513 1.669 0.497 0.594 0.016 1.178-0.158 1.667-0.497 0.665-0.443 1.45-0.672 2.249-0.656 0.801-0.017 1.587 0.212 2.254 0.656 0.489 0.339 1.073 0.513 1.668 0.497 0.595 0.016 1.179-0.158 1.668-0.497 0.673-0.429 1.454-0.656 2.252-0.656s1.579 0.228 2.252 0.656c0.496 0.324 1.075 0.497 1.668 0.497s1.172-0.173 1.668-0.497c0.673-0.429 1.454-0.656 2.252-0.656s1.579 0.228 2.252 0.656c0.496 0.324 1.075 0.497 1.668 0.497s1.172-0.173 1.668-0.497c0.674-0.428 1.455-0.656 2.254-0.656s1.58 0.228 2.254 0.656c0.497 0.324 1.077 0.497 1.67 0.497s1.173-0.173 1.67-0.497c0.667-0.444 1.453-0.672 2.254-0.656v1.153c-0.596-0.017-1.182 0.157-1.672 0.497-0.666 0.443-1.452 0.672-2.253 0.656z"></path>
<path fill="#fff" style="fill: var(--color1, #fff)" d="M28.796 19.275l-1.088-0.382c0.28-0.805 0.395-1.658 0.337-2.509s-0.288-1.68-0.675-2.44l-3.96-7.756c-0.039-0.077-0.061-0.161-0.063-0.247s0.015-0.171 0.050-0.25c0.035-0.079 0.087-0.148 0.153-0.204s0.142-0.096 0.226-0.118l7.893-2.104c0.257-0.067 0.477-0.233 0.613-0.462s0.175-0.502 0.11-0.76-0.229-0.48-0.457-0.617c-0.228-0.137-0.5-0.179-0.759-0.117l-9.553 2.283c-0.204 0.048-0.395 0.143-0.556 0.277s-0.291 0.303-0.377 0.494c-0.086 0.191-0.127 0.4-0.119 0.61s0.064 0.415 0.163 0.599l2.837 5.27c0.072 0.134 0.088 0.291 0.045 0.437s-0.142 0.269-0.276 0.342l-3.661 2.018-0.556-1.010 3.161-1.742-2.563-4.767c-0.183-0.34-0.286-0.718-0.3-1.105s0.061-0.771 0.219-1.123c0.158-0.353 0.396-0.664 0.694-0.911s0.649-0.421 1.025-0.51l9.548-2.283c0.556-0.14 1.145-0.054 1.637 0.239s0.848 0.771 0.988 1.327 0.054 1.145-0.239 1.637c-0.294 0.492-0.771 0.848-1.327 0.988l-7.204 1.92 3.637 7.12c0.458 0.899 0.729 1.881 0.798 2.887s-0.067 2.016-0.399 2.969z"></path>
<path fill="#fff" style="fill: var(--color1, #fff)" d="M17.106 13.749l-7.007 3.861 0.556 1.009 7.007-3.861-0.556-1.009z"></path>
<path fill="#fff" style="fill: var(--color1, #fff)" d="M34.018 15.44c-0.855 0-1.691-0.254-2.402-0.729s-1.265-1.151-1.593-1.941c-0.327-0.79-0.413-1.66-0.246-2.498s0.579-1.609 1.183-2.214c0.605-0.605 1.375-1.017 2.214-1.183s1.708-0.081 2.498 0.246c0.79 0.327 1.466 0.882 1.941 1.593s0.729 1.547 0.729 2.402c-0.001 1.146-0.457 2.246-1.268 3.056s-1.91 1.267-3.056 1.268zM34.018 7.944c-0.627 0-1.24 0.186-1.762 0.534s-0.928 0.844-1.168 1.423-0.303 1.217-0.18 1.832c0.122 0.615 0.424 1.18 0.868 1.624s1.009 0.746 1.624 0.868 1.253 0.060 1.832-0.18c0.58-0.24 1.075-0.646 1.423-1.168s0.535-1.135 0.535-1.762c-0.001-0.841-0.336-1.647-0.93-2.241s-1.401-0.929-2.241-0.93z"></path>
</symbol>
<symbol id="icon-booking1" viewBox="0 0 32 32">
<path fill="#fff" style="fill: var(--color1, #fff)" d="M0.792 6.51c-0.431 0-0.784-0.353-0.792-0.784v-4.933c0-0.439 0.353-0.792 0.792-0.792h4.933c0.431 0 0.784 0.353 0.784 0.792v1.718h18.98v-1.718c0-0.431 0.353-0.784 0.784-0.792h4.933c0.431 0 0.784 0.353 0.792 0.792v4.933c0 0.431-0.353 0.784-0.792 0.784h-1.718v18.98h1.718c0.431 0 0.784 0.353 0.792 0.784v4.933c0 0.431-0.353 0.784-0.792 0.792h-4.933c-0.431 0-0.784-0.353-0.784-0.792v-1.718h-18.98v1.718c0 0.431-0.353 0.784-0.784 0.792h-4.933c-0.431 0-0.784-0.353-0.792-0.792v-4.933c0-0.431 0.353-0.784 0.792-0.784h1.718v-18.98h-1.718zM30.431 4.941v-3.373h-3.373v3.373h3.373zM27.059 30.431h3.373v-3.373h-3.373v3.373zM6.51 26.274v1.647h18.98v-1.647c0-0.431 0.353-0.784 0.784-0.784h1.647v-18.98h-1.647c-0.431 0-0.784-0.353-0.784-0.784v-1.647h-18.98v1.647c0 0.431-0.353 0.784-0.784 0.784h-1.647v18.98h1.647c0.431 0 0.784 0.353 0.784 0.784zM1.569 27.059v3.373h3.373v-3.373h-3.373zM4.941 4.941v-3.373h-3.373v3.373h3.373z"></path>
</symbol>
<symbol id="icon-navigation-sell" viewBox="0 0 32 32">
<path d="M28.909 4.417l-11 24c-0.092 0.201-0.248 0.366-0.444 0.469s-0.42 0.138-0.638 0.1-0.417-0.147-0.566-0.311c-0.149-0.163-0.24-0.371-0.258-0.592l-0.93-11.157-11.157-0.93c-0.22-0.018-0.428-0.109-0.592-0.258s-0.272-0.348-0.311-0.566c-0.038-0.218-0.003-0.442 0.1-0.638s0.268-0.352 0.469-0.444l24-11c0.185-0.085 0.393-0.111 0.593-0.075s0.386 0.133 0.53 0.277 0.241 0.329 0.277 0.53c0.036 0.201 0.010 0.408-0.075 0.594l0 0z"></path>
</symbol>
<symbol id="icon-cat-best" viewBox="0 0 35 32">
<path fill="#fff1da" style="fill: var(--color12, #fff1da)" d="M9.934 15.169c0 2.066 1.675 3.74 3.74 3.74h5.61c0.574 0 1.039-0.465 1.039-1.039v-7.065c0-1.148-0.93-2.078-2.078-2.078h-7.273c-0.574 0-1.039 0.465-1.039 1.039v5.403z"></path>
<path fill="#d5d6db" style="fill: var(--color13, #d5d6db)" d="M20.029 18.066c-0.282 0.063-0.557 0.18-0.808 0.344-0.653 0.416-1.032 1.009-0.848 1.326s0.863 0.235 1.515-0.18c0.254-0.158 0.479-0.36 0.663-0.593 0.085-0.113 0.1-0.253 0.039-0.358l-0.239-0.411c-0.061-0.105-0.187-0.155-0.322-0.128z"></path>
<path fill="#d5d6db" style="fill: var(--color13, #d5d6db)" d="M18.39 12.457c-0.205 0.046-0.404 0.131-0.586 0.249-0.473 0.301-0.749 0.732-0.615 0.961s0.626 0.17 1.099-0.131c0.184-0.114 0.348-0.261 0.481-0.43 0.062-0.082 0.073-0.183 0.028-0.259l-0.173-0.298c-0.044-0.076-0.136-0.113-0.233-0.093z"></path>
<path fill="#029bc5" style="fill: var(--color14, #029bc5)" d="M15.727 12.692c-0.046-0.005-0.094 0.007-0.136 0.034l-1.111 0.708c-0.093 0.059-0.13 0.173-0.083 0.254 0.011 0.019 0.026 0.035 0.043 0.047l2.739 1.888 3.706-2.361-5.158-0.569z"></path>
<path fill="#e1e6e9" style="fill: var(--color15, #e1e6e9)" d="M27.442 12.425l-10.085 6.348-5.966 2.374-3.043 0.605-0.335-0.569 16.809-10.379c0.501-0.311 1.059-0.501 1.618-0.553 0.245-0.021 0.486-0.013 0.719 0.024 0.207 0.031 0.402 0.092 0.582 0.179 0.2 0.099 0.582 0.111 0.705 0.309 0-0 0.292 0.909-1.005 1.66z"></path>
<path fill="#029bc5" style="fill: var(--color14, #029bc5)" d="M17.491 17.933l-4.363 6.955c-0.054 0.098-0.022 0.207 0.072 0.244 0.058 0.023 0.129 0.014 0.188-0.024l1.11-0.704c0.214-0.136 0.403-0.308 0.556-0.506l8.461-9.947-6.024 3.982z"></path>
<path fill="#029bc5" style="fill: var(--color14, #029bc5)" d="M6.482 17.701c-0.073-0.025-0.159-0.012-0.232 0.035l-0.918 0.585c-0.125 0.080-0.175 0.233-0.111 0.342 0.012 0.021 0.028 0.039 0.047 0.054l2.572 2.060 2.704-1.689-4.061-1.386z"></path>
<path fill="#029bc5" style="fill: var(--color14, #029bc5)" d="M8.701 21.147l-1.384 1.939c-0.020 0.028-0.016 0.063 0.011 0.078 0.019 0.011 0.045 0.009 0.066-0.005l0.858-0.544c0.007-0.004 0.013-0.010 0.018-0.016l2.023-2.459-1.59 1.007z"></path>
<path fill="#029bc5" style="fill: var(--color14, #029bc5)" d="M26.994 10.36c-0.24-0.039-0.489-0.047-0.741-0.025-0.245 0.343-0.402 0.728-0.455 1.118-0.004 0.078 0.059 0.134 0.141 0.126 0.025-0.003 0.051-0.012 0.073-0.026l1.581-1.007c-0.185-0.091-0.387-0.154-0.599-0.186z"></path>
<path fill="#d5d6db" style="fill: var(--color13, #d5d6db)" d="M23.549 12.211l1.032-0.652 0.961 1.635-1.032 0.652-0.961-1.635z"></path>
<path fill="#3a556a" style="fill: var(--color16, #3a556a)" d="M22.9 12.858c-0.124 0.079-0.174 0.23-0.111 0.338l0.102 0.175c0.067 0.105 0.221 0.124 0.343 0.041 0.116-0.079 0.163-0.221 0.107-0.327l-0.102-0.175c-0.063-0.108-0.215-0.132-0.339-0.053z"></path>
<path fill="#3a556a" style="fill: var(--color16, #3a556a)" d="M21.972 13.434c-0.124 0.079-0.174 0.23-0.111 0.338l0.102 0.175c0.067 0.105 0.221 0.124 0.343 0.041 0.116-0.079 0.163-0.221 0.107-0.327l-0.102-0.175c-0.063-0.108-0.215-0.132-0.339-0.053z"></path>
<path fill="#3a556a" style="fill: var(--color16, #3a556a)" d="M21.044 14.010c-0.124 0.079-0.174 0.23-0.111 0.338l0.102 0.175c0.067 0.105 0.221 0.124 0.343 0.041 0.116-0.079 0.163-0.221 0.107-0.327l-0.102-0.175c-0.063-0.108-0.215-0.132-0.34-0.053z"></path>
<path fill="#3a556a" style="fill: var(--color16, #3a556a)" d="M20.117 14.586c-0.124 0.079-0.174 0.23-0.111 0.338l0.102 0.175c0.067 0.105 0.221 0.124 0.343 0.041 0.116-0.079 0.163-0.221 0.107-0.327l-0.102-0.175c-0.063-0.108-0.215-0.132-0.34-0.053z"></path>
<path fill="#3a556a" style="fill: var(--color16, #3a556a)" d="M19.189 15.162c-0.124 0.079-0.174 0.23-0.111 0.338l0.102 0.175c0.063 0.108 0.215 0.132 0.339 0.053s0.174-0.23 0.111-0.338l-0.102-0.175c-0.063-0.108-0.215-0.132-0.339-0.053-0 0-0 0-0 0z"></path>
<path fill="#3a556a" style="fill: var(--color16, #3a556a)" d="M18.262 15.738c-0.124 0.079-0.174 0.23-0.111 0.338l0.102 0.175c0.063 0.108 0.215 0.132 0.339 0.053s0.174-0.23 0.111-0.338l-0.102-0.175c-0.063-0.108-0.215-0.132-0.339-0.053-0 0-0 0-0 0z"></path>
<path fill="#3a556a" style="fill: var(--color16, #3a556a)" d="M17.334 16.314c-0.124 0.079-0.174 0.23-0.111 0.338l0.102 0.175c0.063 0.108 0.215 0.131 0.339 0.052s0.174-0.23 0.111-0.337l-0.102-0.175c-0.063-0.108-0.215-0.132-0.339-0.053z"></path>
<path fill="#3a556a" style="fill: var(--color16, #3a556a)" d="M16.406 16.891c-0.124 0.079-0.174 0.23-0.111 0.338l0.102 0.175c0.063 0.108 0.215 0.131 0.339 0.052s0.174-0.23 0.111-0.337l-0.102-0.175c-0.063-0.108-0.215-0.132-0.339-0.053z"></path>
<path fill="#3a556a" style="fill: var(--color16, #3a556a)" d="M15.479 17.467c-0.124 0.079-0.174 0.23-0.111 0.338l0.102 0.175c0.063 0.108 0.215 0.131 0.339 0.052s0.174-0.23 0.111-0.337l-0.102-0.175c-0.063-0.108-0.215-0.132-0.339-0.053z"></path>
<path fill="#3a556a" style="fill: var(--color16, #3a556a)" d="M14.551 18.043c-0.124 0.079-0.174 0.23-0.111 0.338l0 0 0.102 0.175c0.063 0.108 0.215 0.131 0.339 0.052s0.174-0.23 0.111-0.337l-0.102-0.175c-0.063-0.108-0.215-0.132-0.339-0.053z"></path>
<path fill="#3a556a" style="fill: var(--color16, #3a556a)" d="M13.623 18.619c-0.124 0.079-0.174 0.23-0.111 0.338l0 0 0.102 0.175c0.063 0.108 0.215 0.131 0.339 0.052s0.174-0.23 0.111-0.337l-0.102-0.175c-0.063-0.108-0.215-0.132-0.339-0.053z"></path>
</symbol>
<symbol id="icon-cat-cust" viewBox="0 0 37 32">
<path fill="#fff1da" style="fill: var(--color12, #fff1da)" d="M13.091 23.273c0 4.82 3.907 8.727 8.727 8.727h13.091c1.339 0 2.424-1.085 2.424-2.424v-16.485c0-2.678-2.171-4.848-4.849-4.848h-16.97c-1.339 0-2.424 1.085-2.424 2.424v12.606z"></path>
<path fill="#b6c4cf" style="fill: var(--color17, #b6c4cf)" d="M24.242 13.502v-2.762c0-0.541-0.439-0.98-0.98-0.98h-1.056c-0.422 0-0.797-0.271-0.93-0.672-0.148-0.447-0.328-0.879-0.536-1.294-0.19-0.378-0.117-0.835 0.182-1.134l0.747-0.747c0.383-0.383 0.383-1.004 0-1.386l-1.953-1.953c-0.383-0.383-1.004-0.383-1.386 0l-0.747 0.747c-0.299 0.299-0.756 0.372-1.134 0.182-0.415-0.209-0.847-0.388-1.294-0.536-0.401-0.133-0.672-0.508-0.672-0.93v-1.056c0-0.541-0.439-0.98-0.98-0.98h-2.762c-0.541 0-0.98 0.439-0.98 0.98v1.056c0 0.422-0.271 0.797-0.672 0.93-0.447 0.148-0.879 0.328-1.294 0.536-0.378 0.19-0.835 0.117-1.134-0.182l-0.747-0.747c-0.383-0.383-1.004-0.383-1.386 0l-1.953 1.953c-0.383 0.383-0.383 1.004 0 1.386l0.747 0.747c0.299 0.299 0.372 0.756 0.182 1.134-0.209 0.415-0.388 0.847-0.536 1.294-0.094 0.283-0.308 0.502-0.575 0.605-0.111 0.043-0.182 0.115-0.306 0.115h-1.056c-0.541 0-0.98 0.439-0.98 0.98v2.664c0 0.541 0.439 0.98 0.98 0.98h1.056c0.422 0 0.797 0.319 0.93 0.72 0.148 0.447 0.328 0.879 0.536 1.294 0.19 0.378 0.117 0.835-0.182 1.134l-0.699 0.747c-0.383 0.383-0.383 1.004 0 1.386l1.855 1.855c0.383 0.383 1.004 0.383 1.386 0l0.747-0.747c0.299-0.299 0.756-0.372 1.134-0.182 0.415 0.209 0.945 0.437 1.391 0.585 0.401 0.133 0.672 0.508 0.672 0.93v1.056c0 0.541 0.439 0.98 0.98 0.98h2.616c0.541 0 0.98-0.439 0.98-0.98v-1.056c0-0.124 0.072-0.195 0.115-0.306 0.104-0.267 0.322-0.482 0.605-0.575 0.447-0.148 0.879-0.328 1.294-0.536 0.378-0.19 0.835-0.117 1.134 0.182l0.747 0.747c0.383 0.383 1.004 0.383 1.386 0l1.953-1.953c0.383-0.383 0.383-1.004 0-1.386l-0.747-0.747c-0.299-0.299-0.372-0.756-0.182-1.134 0.209-0.415 0.388-0.847 0.536-1.294 0.133-0.401 0.508-0.672 0.93-0.672h1.056c0.541 0 0.98-0.439 0.98-0.98z"></path>
<path fill="#9facba" style="fill: var(--color18, #9facba)" d="M14.549 21.851c-0.043 0.111-0.066 0.231-0.066 0.355v1.056c0 0.541-0.439 0.98-0.98 0.98h-2.762c-0.541 0-0.98-0.439-0.98-0.98v-1.056c0-0.422-0.271-0.798-0.672-0.93-0.446-0.148-0.879-0.327-1.294-0.536-0.378-0.19-0.835-0.118-1.134 0.181l-0.747 0.747c-0.383 0.383-1.004 0.383-1.387 0l-1.953-1.953c-0.382-0.383-0.382-1.004 0-1.387l0.748-0.747c0.299-0.299 0.372-0.756 0.181-1.134-0.209-0.415-0.388-0.847-0.536-1.294-0.133-0.401-0.508-0.672-0.93-0.672h-1.056c-0.541 0-0.98-0.439-0.98-0.98v-2.762c0-0.541 0.439-0.98 0.98-0.98h1.056c0.124 0 0.244-0.023 0.355-0.066-0.001 0.061-0.001 0.122-0.001 0.184 0 6.614 5.362 11.975 11.975 11.975 0.061 0 0.123-0 0.184-0.001z"></path>
<path fill="#9facba" style="fill: var(--color18, #9facba)" d="M12.121 20.169c4.445 0 8.048-3.603 8.048-8.048s-3.603-8.048-8.048-8.048c-4.445 0-8.048 3.603-8.048 8.048s3.603 8.048 8.048 8.048z"></path>
<path fill="#f8f7f7" style="fill: var(--color19, #f8f7f7)" d="M12.121 18.462c3.502 0 6.341-2.839 6.341-6.341s-2.839-6.341-6.341-6.341c-3.502 0-6.341 2.839-6.341 6.341s2.839 6.341 6.341 6.341z"></path>
</symbol>
<symbol id="icon-cat-loc" viewBox="0 0 29 32">
<path fill="#fff1da" style="fill: var(--color12, #fff1da)" d="M28.587 7.68c0-4.242-3.438-7.68-7.68-7.68h-11.52c-1.178 0-2.133 0.955-2.133 2.133v14.507c0 2.356 1.91 4.267 4.267 4.267h14.933c1.178 0 2.133-0.955 2.133-2.133v-11.093z"></path>
<path fill="#000" style="fill: var(--color2, #000)" d="M0 2.56h17.067v21.563c0 4.35-3.527 7.877-7.877 7.877-5.075 0-9.19-4.114-9.19-9.19v-20.25z"></path>
</symbol>
<symbol id="icon-cat-calc" viewBox="0 0 38 32">
<path fill="#fff1da" style="fill: var(--color12, #fff1da)" d="M37.744 24.615c0 4.078-3.306 7.385-7.385 7.385h-11.077c-1.133 0-2.051-0.918-2.051-2.051v-13.949c0-2.266 1.837-4.103 4.103-4.103h14.359c1.133 0 2.051 0.918 2.051 2.051v10.667z"></path>
<path fill="#407093" style="fill: var(--color20, #407093)" d="M9.652 20.783l-0.775-0.371-4.602 6.804h5.136l0.495-0.323v-5.878l-0.254-0.233z"></path>
<path fill="#365e7d" style="fill: var(--color21, #365e7d)" d="M8.947 20.445l-1.742-0.834h-0.328l-4.925 7.281 0.293 0.323h2.122l4.579-6.77z"></path>
<path fill="#4a80aa" style="fill: var(--color22, #4a80aa)" d="M10.831 26.893h-6.791c-0.308 0-0.559 0.25-0.559 0.559v0.708c0 0.308 0.25 0.558 0.558 0.559h6.791c0.309 0 0.559-0.25 0.559-0.559v-0.708c0-0.309-0.25-0.559-0.559-0.559z"></path>
<path fill="#407093" style="fill: var(--color20, #407093)" d="M3.597 28.159v-0.708c0-0.308 0.25-0.559 0.559-0.559h-3.597c-0.308 0-0.559 0.25-0.559 0.559v0.708c0 0.308 0.25 0.559 0.559 0.559h3.597c-0.308 0-0.559-0.25-0.559-0.559z"></path>
<path fill="#4a80aa" style="fill: var(--color22, #4a80aa)" d="M8.714 16.403c-0.209 0.431-0.327 0.915-0.327 1.426 0 1.398 0.875 2.59 2.107 3.062 0.529-0.166 0.999-0.465 1.37-0.858v-0.714l-3.15-2.916z"></path>
<path fill="#407093" style="fill: var(--color20, #407093)" d="M8.442 17.841c0-0.5 0.116-0.972 0.32-1.393l-1.007-0.932h-0.409c-0.618 0.583-1.004 1.409-1.004 2.325 0 1.765 1.431 3.196 3.196 3.196 0.368 0 0.72-0.063 1.049-0.177-1.249-0.435-2.146-1.622-2.146-3.019z"></path>
<path fill="#ffd086" style="fill: var(--color23, #ffd086)" d="M27 0.379c-0.506-0.506-1.326-0.506-1.832 0l-1.236 1.236v0.157l1.543 1.608 0.289 0.067 1.236-1.236c0.506-0.506 0.506-1.326 0-1.832z"></path>
<path fill="#ffc365" style="fill: var(--color24, #ffc365)" d="M27.341 0.991c-0.054-0.224-0.167-0.437-0.342-0.611-0.506-0.506-1.326-0.506-1.832 0l-1.236 1.236v0.157l0.818 0.853c0.488-0.507 0.972-1.008 1.221-1.257 0.415-0.415 1.021-0.418 1.371-0.377z"></path>
<path fill="#365e7d" style="fill: var(--color21, #365e7d)" d="M22.768 3.672c-0.014 0-0.029-0.001-0.043-0.002l-14.284-1.406c-0.238-0.023-0.412-0.236-0.389-0.474s0.236-0.412 0.474-0.389l14.284 1.406c0.238 0.023 0.412 0.236 0.389 0.474-0.022 0.224-0.211 0.391-0.431 0.391z"></path>
<path fill="#407093" style="fill: var(--color20, #407093)" d="M12.573 6.346c-0.192 0-0.368-0.129-0.419-0.324-0.061-0.232 0.078-0.468 0.309-0.529l10.195-2.674c0.232-0.061 0.468 0.078 0.529 0.309s-0.078 0.468-0.309 0.529l-10.195 2.674c-0.037 0.010-0.074 0.014-0.11 0.014z"></path>
<path fill="#365e7d" style="fill: var(--color21, #365e7d)" d="M25.537 19.338c-0.22 0-0.409-0.167-0.431-0.391l-1.397-14.292c-0.023-0.238 0.151-0.45 0.389-0.474 0.238-0.022 0.45 0.151 0.473 0.389l1.397 14.292c0.023 0.238-0.151 0.45-0.389 0.474-0.014 0.001-0.029 0.002-0.043 0.002z"></path>
<path fill="#407093" style="fill: var(--color20, #407093)" d="M21.426 15.281c-0.037 0-0.074-0.005-0.111-0.015-0.231-0.061-0.369-0.299-0.308-0.53l2.713-10.234c0.061-0.231 0.299-0.369 0.53-0.308s0.369 0.299 0.308 0.53l-2.713 10.234c-0.051 0.194-0.227 0.322-0.419 0.322z"></path>
<path fill="#ffc365" style="fill: var(--color24, #ffc365)" d="M22.69 2.857l1.239-1.239 1.831 1.831-1.239 1.239-1.831-1.831z"></path>
<path fill="#ffa90f" style="fill: var(--color25, #ffa90f)" d="M23.631 3.793c0.298-0.312 0.763-0.798 1.213-1.266l-0.912-0.912-1.239 1.239 0.938 0.938z"></path>
<path fill="#4a80aa" style="fill: var(--color22, #4a80aa)" d="M24.8 5.396c-0.111 0-0.222-0.042-0.306-0.127l-2.383-2.383c-0.169-0.169-0.169-0.444 0-0.613s0.444-0.169 0.613 0l2.383 2.383c0.169 0.169 0.169 0.444 0 0.613-0.085 0.085-0.196 0.127-0.306 0.127z"></path>
<path fill="#b5dcff" style="fill: var(--color26, #b5dcff)" d="M25.080 20.118l-14.511-14.637c-1.924 4.343-2.258 9.006-0.818 13.026 3.978 3.588 9.919 4.139 15.39 1.884l-0.061-0.273z"></path>
<path fill="#8bcaff" style="fill: var(--color27, #8bcaff)" d="M10.646 5.559l-3.325-3.354-0.333 0.033c-2.342 5.681-1.658 11.871 2.311 15.841 0.24 0.24 0.489 0.469 0.745 0.685-1.673-4.016-1.402-8.792 0.601-13.205z"></path>
<path fill="#dbedff" style="fill: var(--color28, #dbedff)" d="M26.406 19.078l-14.717-14.717c-0.145 0.022-0.284 0.088-0.396 0.2l-0.64 0.64c-0.137 0.137-0.206 0.317-0.208 0.497l14.671 14.671c0.218 0.218 0.572 0.218 0.79 0l0.501-0.5c0.218-0.218 0.218-0.572-0-0.79z"></path>
<path fill="#b5dcff" style="fill: var(--color26, #b5dcff)" d="M10.675 5.211l0.627-0.627c0.115-0.115 0.261-0.182 0.412-0.199l-3.412-3.412c-0.218-0.218-0.572-0.218-0.79 0l-0.5 0.501c-0.218 0.218-0.218 0.572 0 0.79l3.46 3.46c-0.005-0.185 0.063-0.371 0.204-0.512z"></path>
</symbol>
<symbol id="icon-play-demo" viewBox="0 0 30 32">
<path fill="#fff" style="fill: var(--color1, #fff)" d="M29.538 16l-27.692 15.988v-31.976l27.692 15.988z"></path>
</symbol>
<symbol id="icon-plane" viewBox="0 0 35 32">
<path fill="#d5d6db" style="fill: var(--color13, #d5d6db)" d="M19.984 18.046c-0.282 0.063-0.557 0.18-0.808 0.344-0.653 0.416-1.032 1.009-0.848 1.326s0.863 0.235 1.515-0.18c0.254-0.158 0.479-0.36 0.663-0.593 0.085-0.113 0.1-0.253 0.039-0.358l-0.239-0.411c-0.061-0.105-0.187-0.155-0.322-0.128z"></path>
<path fill="#d5d6db" style="fill: var(--color13, #d5d6db)" d="M18.345 12.437c-0.205 0.046-0.404 0.131-0.586 0.249-0.473 0.301-0.749 0.732-0.615 0.961s0.626 0.17 1.099-0.131c0.184-0.114 0.348-0.261 0.481-0.43 0.062-0.082 0.073-0.183 0.028-0.259l-0.173-0.298c-0.044-0.076-0.136-0.113-0.233-0.093z"></path>
<path fill="#029bc5" style="fill: var(--color14, #029bc5)" d="M15.683 12.672c-0.046-0.005-0.094 0.007-0.136 0.034l-1.111 0.708c-0.093 0.059-0.13 0.173-0.083 0.254 0.011 0.019 0.026 0.034 0.043 0.047l2.739 1.888 3.706-2.361-5.158-0.569z"></path>
<path fill="#e1e6e9" style="fill: var(--color15, #e1e6e9)" d="M27.397 12.405l-10.085 6.348-5.966 2.374-3.043 0.605-0.335-0.569 16.809-10.379c0.501-0.311 1.059-0.501 1.618-0.553 0.245-0.021 0.486-0.013 0.719 0.024 0.207 0.031 0.402 0.092 0.582 0.179 0.2 0.099 0.581 0.111 0.705 0.309 0-0 0.292 0.909-1.005 1.66z"></path>
<path fill="#029bc5" style="fill: var(--color14, #029bc5)" d="M17.447 17.914l-4.363 6.955c-0.054 0.098-0.022 0.207 0.072 0.244 0.058 0.023 0.129 0.014 0.188-0.024l1.11-0.704c0.214-0.136 0.403-0.308 0.556-0.506l8.461-9.947-6.024 3.982z"></path>
<path fill="#029bc5" style="fill: var(--color14, #029bc5)" d="M6.438 17.681c-0.073-0.025-0.159-0.012-0.232 0.035l-0.918 0.585c-0.125 0.080-0.175 0.233-0.111 0.342 0.012 0.021 0.028 0.039 0.047 0.054l2.572 2.060 2.704-1.689-4.061-1.386z"></path>
<path fill="#029bc5" style="fill: var(--color14, #029bc5)" d="M8.657 21.128l-1.384 1.939c-0.020 0.028-0.016 0.063 0.011 0.078 0.019 0.011 0.045 0.009 0.066-0.005l0.858-0.544c0.007-0.004 0.013-0.010 0.018-0.016l2.023-2.459-1.59 1.007z"></path>
<path fill="#029bc5" style="fill: var(--color14, #029bc5)" d="M26.95 10.34c-0.24-0.039-0.489-0.047-0.741-0.025-0.245 0.343-0.402 0.728-0.455 1.118-0.004 0.078 0.059 0.134 0.141 0.126 0.026-0.003 0.051-0.012 0.073-0.026l1.581-1.007c-0.185-0.091-0.387-0.154-0.599-0.186z"></path>
<path fill="#d5d6db" style="fill: var(--color13, #d5d6db)" d="M23.505 12.191l1.032-0.652 0.961 1.635-1.032 0.652-0.961-1.635z"></path>
<path fill="#3a556a" style="fill: var(--color16, #3a556a)" d="M22.855 12.838c-0.124 0.079-0.174 0.23-0.111 0.338l0.102 0.175c0.067 0.105 0.221 0.124 0.343 0.041 0.116-0.079 0.163-0.221 0.107-0.327l-0.102-0.175c-0.063-0.108-0.215-0.132-0.339-0.053z"></path>
<path fill="#3a556a" style="fill: var(--color16, #3a556a)" d="M21.928 13.414c-0.124 0.079-0.174 0.23-0.111 0.338l0.102 0.175c0.067 0.105 0.221 0.124 0.343 0.041 0.116-0.079 0.163-0.221 0.107-0.327l-0.102-0.175c-0.063-0.108-0.215-0.132-0.339-0.053z"></path>
<path fill="#3a556a" style="fill: var(--color16, #3a556a)" d="M21 13.991c-0.124 0.079-0.174 0.23-0.111 0.338l0.102 0.175c0.067 0.105 0.221 0.124 0.343 0.041 0.116-0.078 0.163-0.221 0.107-0.327l-0.102-0.175c-0.063-0.108-0.215-0.132-0.34-0.053z"></path>
<path fill="#3a556a" style="fill: var(--color16, #3a556a)" d="M20.072 14.567c-0.124 0.079-0.174 0.23-0.111 0.338l0.102 0.175c0.067 0.105 0.221 0.124 0.343 0.041 0.116-0.079 0.163-0.221 0.107-0.327l-0.102-0.175c-0.063-0.108-0.215-0.132-0.34-0.053z"></path>
<path fill="#3a556a" style="fill: var(--color16, #3a556a)" d="M19.145 15.143c-0.124 0.079-0.174 0.23-0.111 0.338l0.102 0.175c0.063 0.108 0.215 0.132 0.339 0.053s0.174-0.23 0.111-0.338l-0.102-0.175c-0.063-0.108-0.215-0.132-0.339-0.053-0 0-0 0-0 0z"></path>
<path fill="#3a556a" style="fill: var(--color16, #3a556a)" d="M18.217 15.719c-0.124 0.079-0.174 0.23-0.111 0.338l0.102 0.175c0.063 0.108 0.215 0.132 0.339 0.053s0.174-0.23 0.111-0.338l-0.102-0.175c-0.063-0.108-0.215-0.132-0.339-0.053-0 0-0 0-0 0z"></path>
<path fill="#3a556a" style="fill: var(--color16, #3a556a)" d="M17.289 16.295c-0.124 0.079-0.174 0.23-0.111 0.338l0.102 0.175c0.063 0.108 0.215 0.131 0.34 0.052s0.174-0.23 0.111-0.337l-0.102-0.175c-0.063-0.108-0.215-0.132-0.339-0.053z"></path>
<path fill="#3a556a" style="fill: var(--color16, #3a556a)" d="M16.362 16.871c-0.124 0.079-0.174 0.23-0.111 0.338l0.102 0.175c0.063 0.108 0.215 0.131 0.34 0.052s0.174-0.23 0.111-0.337l-0.102-0.175c-0.063-0.108-0.215-0.132-0.339-0.053z"></path>
<path fill="#3a556a" style="fill: var(--color16, #3a556a)" d="M15.434 17.447c-0.124 0.079-0.174 0.23-0.111 0.338l0.102 0.175c0.063 0.108 0.215 0.131 0.339 0.052s0.174-0.23 0.111-0.337l-0.102-0.175c-0.063-0.108-0.215-0.132-0.339-0.053z"></path>
<path fill="#3a556a" style="fill: var(--color16, #3a556a)" d="M14.506 18.023c-0.124 0.079-0.174 0.23-0.111 0.338l0 0 0.102 0.175c0.063 0.108 0.215 0.131 0.339 0.052s0.174-0.23 0.111-0.337l-0.102-0.175c-0.063-0.108-0.215-0.132-0.339-0.053z"></path>
<path fill="#3a556a" style="fill: var(--color16, #3a556a)" d="M13.579 18.599c-0.124 0.079-0.174 0.23-0.111 0.338l0 0 0.102 0.175c0.063 0.108 0.215 0.131 0.339 0.052s0.174-0.23 0.111-0.337l-0.102-0.175c-0.063-0.108-0.215-0.132-0.339-0.053z"></path>
</symbol>
<symbol id="icon-Logo" viewBox="0 0 106 32">
<path fill="#f1a501" style="fill: var(--color29, #f1a501)" d="M68.571 26.514l8.686 2.743 7.314-7.314 9.143 6.4 9.6-1.829-4.114-13.257-14.629 4.571-8.229-4.571-8.686 1.371 0.914 11.886z"></path>
<path fill="#000" style="fill: var(--color2, #000)" d="M0.841 22.001v-1.977l5.594-1.009v2.734c0.028 1.486 0.407 2.608 1.136 3.365 0.757 0.729 1.752 1.093 2.986 1.093 1.206 0 2.159-0.392 2.86-1.178 0.729-0.785 1.094-1.837 1.094-3.154v-20.608h5.804v20.608c0 2.748-0.911 5.075-2.734 6.982s-4.15 2.86-6.982 2.86c-2.944 0-5.313-0.883-7.108-2.65-1.766-1.794-2.65-4.15-2.65-7.066z"></path>
<path fill="#000" style="fill: var(--color2, #000)" d="M21.647 25.45c0-1.766 0.575-3.182 1.724-4.248s2.636-1.738 4.458-2.019l5.089-0.757c1.037-0.14 1.556-0.631 1.556-1.472 0-0.785-0.308-1.43-0.925-1.935-0.589-0.505-1.444-0.757-2.566-0.757-1.178 0-2.117 0.322-2.818 0.967-0.673 0.645-1.051 1.444-1.136 2.397l-4.963-1.051c0.196-1.794 1.079-3.379 2.65-4.752s3.645-2.061 6.224-2.061c3.084 0 5.355 0.743 6.813 2.229 1.458 1.458 2.187 3.336 2.187 5.636v10.178c0 1.234 0.084 2.327 0.252 3.28h-5.131c-0.14-0.617-0.21-1.444-0.21-2.481-1.318 2.047-3.351 3.070-6.098 3.070-2.131 0-3.855-0.617-5.173-1.851-1.29-1.234-1.935-2.692-1.935-4.374zM29.932 27.511c1.318 0 2.397-0.365 3.238-1.093 0.869-0.757 1.304-1.991 1.304-3.701v-0.925l-4.668 0.715c-1.71 0.252-2.566 1.122-2.566 2.608 0 0.673 0.238 1.248 0.715 1.724 0.477 0.449 1.136 0.673 1.977 0.673z"></path>
<path fill="#000" style="fill: var(--color2, #000)" d="M61.858 0.636v26.706c0 1.374 0.056 2.622 0.168 3.743h-5.341c-0.14-0.701-0.21-1.5-0.21-2.397-0.477 0.869-1.234 1.57-2.271 2.103-1.009 0.533-2.187 0.799-3.533 0.799-2.944 0-5.369-1.023-7.276-3.070-1.879-2.075-2.818-4.682-2.818-7.823 0-3.056 0.925-5.622 2.776-7.696 1.879-2.075 4.262-3.112 7.15-3.112 2.972 0 4.921 0.855 5.846 2.566v-11.818h5.51zM46.213 20.698c0 1.822 0.477 3.266 1.43 4.332 0.953 1.037 2.187 1.556 3.701 1.556 1.486 0 2.706-0.533 3.659-1.598s1.43-2.509 1.43-4.332c0-1.794-0.477-3.196-1.43-4.206-0.953-1.037-2.173-1.556-3.659-1.556s-2.72 0.519-3.701 1.556c-0.953 1.037-1.43 2.453-1.43 4.248z"></path>
<path fill="#000" style="fill: var(--color2, #000)" d="M70.113 25.072c1.037 1.037 2.285 1.556 3.743 1.556s2.692-0.519 3.701-1.556c1.037-1.037 1.556-2.481 1.556-4.332s-0.519-3.294-1.556-4.332c-1.009-1.037-2.243-1.556-3.701-1.556s-2.706 0.519-3.743 1.556c-1.009 1.037-1.514 2.481-1.514 4.332s0.505 3.294 1.514 4.332zM66.076 12.875c2.075-2.075 4.668-3.112 7.781-3.112s5.692 1.037 7.739 3.112c2.075 2.075 3.112 4.696 3.112 7.865s-1.037 5.79-3.112 7.865c-2.047 2.075-4.626 3.112-7.739 3.112s-5.706-1.037-7.781-3.112c-2.047-2.075-3.070-4.696-3.070-7.865s1.023-5.79 3.070-7.865z"></path>
<path fill="#000" style="fill: var(--color2, #000)" d="M91.31 25.072c1.038 1.037 2.285 1.556 3.743 1.556s2.692-0.519 3.701-1.556c1.038-1.037 1.556-2.481 1.556-4.332s-0.518-3.294-1.556-4.332c-1.009-1.037-2.243-1.556-3.701-1.556s-2.705 0.519-3.743 1.556c-1.009 1.037-1.514 2.481-1.514 4.332s0.505 3.294 1.514 4.332zM87.272 12.875c2.075-2.075 4.668-3.112 7.781-3.112s5.691 1.037 7.739 3.112c2.075 2.075 3.112 4.696 3.112 7.865s-1.038 5.79-3.112 7.865c-2.047 2.075-4.626 3.112-7.739 3.112s-5.706-1.037-7.781-3.112c-2.047-2.075-3.070-4.696-3.070-7.865s1.023-5.79 3.070-7.865z"></path>
</symbol>
<symbol id="icon-arrow-header" viewBox="0 0 53 32">
<path stroke-linejoin="miter" stroke-linecap="butt" stroke-miterlimit="4" stroke-width="5.3333" d="M2.667 2.667l24 24 24-24"></path>
</symbol>
</defs>
</svg>
